ffmpeg started on 2026-04-01 at 12:11:31
Report written to "D:\Convert\FFMetrics\reports\psnr_report-6.txt"
Log level: 32
Command line:
ffmpeg -hide_banner -nostdin -r 24000/1001 -i "F:\\Convert\\files\\[DC] Make Heroine ga Oosugiru - 07_Telegram_HEVC(282).mkv" -r 24000/1001 -i "F:\\Convert\\files\\[DC] Make Heroine ga Oosugiru - 07_Telegram.mp4" -lavfi "[0:v]settb=AVTB,setpts=PTS-STARTPTS,format=pix_fmts=yuv420p10le,fps=24000/1001,scale=1920:1080:flags=lanczos:param0=3:out_range=limited:out_color_matrix=bt709:out_chroma_loc=left,setsar=1/1,setdar=(1920/1080)*(1/1),colorspace=format=yuv420p10:range=tv:primaries=bt709:trc=bt709:space=bt709:fast=0[main];[1:v]settb=AVTB,setpts=PTS-STARTPTS,format=pix_fmts=yuv420p,fps=24000/1001,scale=1920:1080:flags=lanczos:param0=3:out_range=limited:out_color_matrix=bt709:out_chroma_loc=left,setsar=1/1,setdar=(1920/1080)*(1/1),colorspace=format=yuv420p:range=tv:primaries=bt709:trc=bt709:space=bt709:fast=0[ref];[main][ref]psnr=eof_action=endall:stats_file='D\\:/Convert/FFMetrics/logs/psnr_logfile-6.txt'" -f null -
Input #0, matroska,webm, from 'F:\Convert\files\[DC] Make Heroine ga Oosugiru - 07_Telegram_HEVC(282).mkv':
  Metadata:
    COMPATIBLE_BRANDS: isomiso2avc1mp41
    MAJOR_BRAND     : isom
    MINOR_VERSION   : 512
    ENCODER         : Lavf61.7.100
  Duration: 00:24:06.79, start: -0.021000, bitrate: 1319 kb/s
  Stream #0:0: Video: hevc (Main 10), yuv420p10le(tv, bt709, progressive), 1920x1080 [SAR 1:1 DAR 16:9], 23.98 fps, 23.98 tbr, 1k tbn (default)
      Metadata:
        HANDLER_NAME    : VideoHandler
        VENDOR_ID       : [0][0][0][0]
        ENCODER         : Lavc61.19.100 libx265
        BPS             : 1122760
        DURATION        : 00:24:06.569708333
        NUMBER_OF_FRAMES: 34683
        NUMBER_OF_BYTES : 203018813
        _STATISTICS_WRITING_APP: mkvpropedit v94.0 ('Initiate') 64-bit
        _STATISTICS_WRITING_DATE_UTC: 2026-03-30 14:59:48
        _STATISTICS_TAGS: BPS DURATION NUMBER_OF_FRAMES NUMBER_OF_BYTES
  Stream #0:1: Audio: aac (LC), 48000 Hz, stereo, fltp (default)
      Metadata:
        HANDLER_NAME    : SoundHandler
        VENDOR_ID       : [0][0][0][0]
        ENCODER         : Lavc61.19.100 aac
        BPS             : 193194
        DURATION        : 00:24:06.784000000
        NUMBER_OF_FRAMES: 67819
        NUMBER_OF_BYTES : 34938755
        _STATISTICS_WRITING_APP: mkvpropedit v94.0 ('Initiate') 64-bit
        _STATISTICS_WRITING_DATE_UTC: 2026-03-30 14:59:48
        _STATISTICS_TAGS: BPS DURATION NUMBER_OF_FRAMES NUMBER_OF_BYTES
Input #1, mov,mp4,m4a,3gp,3g2,mj2, from 'F:\Convert\files\[DC] Make Heroine ga Oosugiru - 07_Telegram.mp4':
  Metadata:
    major_brand     : isom
    minor_version   : 512
    compatible_brands: isomiso2avc1mp41
    encoder         : Lavf60.16.100
  Duration: 00:24:06.74, start: 0.000000, bitrate: 3764 kb/s
  Stream #1:0[0x1](und): Video: h264 (High) (avc1 / 0x31637661), yuv420p(tv, bt709, progressive), 1920x1080 [SAR 1:1 DAR 16:9], 3616 kb/s, 23.98 fps, 23.98 tbr, 24k tbn (default)
      Metadata:
        handler_name    : VideoHandler
        vendor_id       : [0][0][0][0]
        encoder         : Lavc60.31.102 h264_qsv
  Stream #1:1[0x2](und): Audio: aac (HE-AACv2) (mp4a / 0x6134706D), 48000 Hz, stereo, fltp, 144 kb/s (default)
      Metadata:
        handler_name    : SoundHandler
        vendor_id       : [0][0][0][0]
Stream mapping:
  Stream #0:0 (hevc) -> settb:default
  Stream #1:0 (h264) -> settb:default
  psnr:default -> Stream #0:0 (wrapped_avframe)
  Stream #0:1 -> #0:1 (aac (native) -> pcm_s16le (native))
Output #0, null, to 'pipe:':
  Metadata:
    COMPATIBLE_BRANDS: isomiso2avc1mp41
    MAJOR_BRAND     : isom
    MINOR_VERSION   : 512
    encoder         : Lavf61.7.100
  Stream #0:0: Video: wrapped_avframe, yuv420p10le(tv, bt709, progressive), 1920x1080 [SAR 1:1 DAR 16:9], q=2-31, 200 kb/s, 23.98 fps, 23.98 tbn
      Metadata:
        encoder         : Lavc61.19.100 wrapped_avframe
  Stream #0:1: Audio: pcm_s16le, 48000 Hz, stereo, s16, 1536 kb/s (default)
      Metadata:
        HANDLER_NAME    : SoundHandler
        VENDOR_ID       : [0][0][0][0]
        _STATISTICS_TAGS: BPS DURATION NUMBER_OF_FRAMES NUMBER_OF_BYTES
        BPS             : 193194
        DURATION        : 00:24:06.784000000
        NUMBER_OF_FRAMES: 67819
        NUMBER_OF_BYTES : 34938755
        _STATISTICS_WRITING_APP: mkvpropedit v94.0 ('Initiate') 64-bit
        _STATISTICS_WRITING_DATE_UTC: 2026-03-30 14:59:48
        encoder         : Lavc61.19.100 pcm_s16le
frame=  124 fps=0.0 q=-0.0 size=N/A time=00:00:05.17 bitrate=N/A speed=10.2x    frame=  308 fps=298 q=-0.0 size=N/A time=00:00:12.84 bitrate=N/A speed=12.4x    frame=  497 fps=322 q=-0.0 size=N/A time=00:00:20.72 bitrate=N/A speed=13.4x    frame=  682 fps=332 q=-0.0 size=N/A time=00:00:28.44 bitrate=N/A speed=13.8x    frame=  875 fps=341 q=-0.0 size=N/A time=00:00:36.49 bitrate=N/A speed=14.2x    frame=  995 fps=322 q=-0.0 size=N/A time=00:00:41.49 bitrate=N/A speed=13.4x    frame= 1156 fps=321 q=-0.0 size=N/A time=00:00:48.21 bitrate=N/A speed=13.4x    frame= 1310 fps=318 q=-0.0 size=N/A time=00:00:54.63 bitrate=N/A speed=13.3x    frame= 1467 fps=317 q=-0.0 size=N/A time=00:01:01.18 bitrate=N/A speed=13.2x    frame= 1603 fps=312 q=-0.0 size=N/A time=00:01:06.85 bitrate=N/A speed=  13x    frame= 1762 fps=311 q=-0.0 size=N/A time=00:01:13.49 bitrate=N/A speed=  13x    frame= 1911 fps=309 q=-0.0 size=N/A time=00:01:19.70 bitrate=N/A speed=12.9x    frame= 2057 fps=307 q=-0.0 size=N/A time=00:01:25.79 bitrate=N/A speed=12.8x    frame= 2172 fps=301 q=-0.0 size=N/A time=00:01:30.59 bitrate=N/A speed=12.5x    frame= 2320 fps=300 q=-0.0 size=N/A time=00:01:36.76 bitrate=N/A speed=12.5x    frame= 2448 fps=297 q=-0.0 size=N/A time=00:01:42.10 bitrate=N/A speed=12.4x    frame= 2572 fps=294 q=-0.0 size=N/A time=00:01:47.27 bitrate=N/A speed=12.3x    frame= 2738 fps=295 q=-0.0 size=N/A time=00:01:54.19 bitrate=N/A speed=12.3x    frame= 2904 fps=297 q=-0.0 size=N/A time=00:02:01.12 bitrate=N/A speed=12.4x    frame= 3079 fps=299 q=-0.0 size=N/A time=00:02:08.41 bitrate=N/A speed=12.5x    frame= 3262 fps=302 q=-0.0 size=N/A time=00:02:16.05 bitrate=N/A speed=12.6x    frame= 3462 fps=305 q=-0.0 size=N/A time=00:02:24.39 bitrate=N/A speed=12.7x    frame= 3654 fps=308 q=-0.0 size=N/A time=00:02:32.40 bitrate=N/A speed=12.9x    frame= 3839 fps=310 q=-0.0 size=N/A time=00:02:40.11 bitrate=N/A speed=12.9x    frame= 4028 fps=312 q=-0.0 size=N/A time=00:02:48.00 bitrate=N/A speed=  13x    frame= 4225 fps=315 q=-0.0 size=N/A time=00:02:56.21 bitrate=N/A speed=13.1x    frame= 4404 fps=316 q=-0.0 size=N/A time=00:03:03.68 bitrate=N/A speed=13.2x    frame= 4593 fps=318 q=-0.0 size=N/A time=00:03:11.56 bitrate=N/A speed=13.3x    frame= 4785 fps=320 q=-0.0 size=N/A time=00:03:19.57 bitrate=N/A speed=13.3x    frame= 4969 fps=321 q=-0.0 size=N/A time=00:03:27.24 bitrate=N/A speed=13.4x    frame= 5155 fps=322 q=-0.0 size=N/A time=00:03:35.00 bitrate=N/A speed=13.4x    frame= 5339 fps=324 q=-0.0 size=N/A time=00:03:42.68 bitrate=N/A speed=13.5x    frame= 5534 fps=325 q=-0.0 size=N/A time=00:03:50.81 bitrate=N/A speed=13.6x    frame= 5725 fps=326 q=-0.0 size=N/A time=00:03:58.78 bitrate=N/A speed=13.6x    frame= 5910 fps=327 q=-0.0 size=N/A time=00:04:06.49 bitrate=N/A speed=13.7x    frame= 6101 fps=329 q=-0.0 size=N/A time=00:04:14.46 bitrate=N/A speed=13.7x    frame= 6289 fps=329 q=-0.0 size=N/A time=00:04:22.30 bitrate=N/A speed=13.7x    frame= 6474 fps=330 q=-0.0 size=N/A time=00:04:30.01 bitrate=N/A speed=13.8x    frame= 6658 fps=331 q=-0.0 size=N/A time=00:04:37.69 bitrate=N/A speed=13.8x    frame= 6844 fps=332 q=-0.0 size=N/A time=00:04:45.45 bitrate=N/A speed=13.8x    frame= 7033 fps=332 q=-0.0 size=N/A time=00:04:53.33 bitrate=N/A speed=13.9x    frame= 7213 fps=333 q=-0.0 size=N/A time=00:05:00.84 bitrate=N/A speed=13.9x    frame= 7397 fps=334 q=-0.0 size=N/A time=00:05:08.51 bitrate=N/A speed=13.9x    frame= 7574 fps=334 q=-0.0 size=N/A time=00:05:15.89 bitrate=N/A speed=13.9x    frame= 7749 fps=334 q=-0.0 size=N/A time=00:05:23.19 bitrate=N/A speed=13.9x    frame= 7936 fps=334 q=-0.0 size=N/A time=00:05:30.99 bitrate=N/A speed=  14x    frame= 8117 fps=335 q=-0.0 size=N/A time=00:05:38.54 bitrate=N/A speed=  14x    frame= 8305 fps=335 q=-0.0 size=N/A time=00:05:46.38 bitrate=N/A speed=  14x    frame= 8485 fps=336 q=-0.0 size=N/A time=00:05:53.89 bitrate=N/A speed=  14x    frame= 8669 fps=336 q=-0.0 size=N/A time=00:06:01.56 bitrate=N/A speed=  14x    frame= 8863 fps=337 q=-0.0 size=N/A time=00:06:09.66 bitrate=N/A speed=14.1x    frame= 9050 fps=337 q=-0.0 size=N/A time=00:06:17.46 bitrate=N/A speed=14.1x    frame= 9233 fps=338 q=-0.0 size=N/A time=00:06:25.09 bitrate=N/A speed=14.1x    frame= 9420 fps=338 q=-0.0 size=N/A time=00:06:32.89 bitrate=N/A speed=14.1x    frame= 9604 fps=339 q=-0.0 size=N/A time=00:06:40.56 bitrate=N/A speed=14.1x    frame= 9793 fps=339 q=-0.0 size=N/A time=00:06:48.44 bitrate=N/A speed=14.1x    frame= 9983 fps=340 q=-0.0 size=N/A time=00:06:56.37 bitrate=N/A speed=14.2x    frame=10162 fps=340 q=-0.0 size=N/A time=00:07:03.84 bitrate=N/A speed=14.2x    frame=10348 fps=340 q=-0.0 size=N/A time=00:07:11.59 bitrate=N/A speed=14.2x    frame=10534 fps=340 q=-0.0 size=N/A time=00:07:19.35 bitrate=N/A speed=14.2x    frame=10714 fps=341 q=-0.0 size=N/A time=00:07:26.86 bitrate=N/A speed=14.2x    frame=10896 fps=341 q=-0.0 size=N/A time=00:07:34.45 bitrate=N/A speed=14.2x    frame=11087 fps=341 q=-0.0 size=N/A time=00:07:42.42 bitrate=N/A speed=14.2x    frame=11264 fps=341 q=-0.0 size=N/A time=00:07:49.80 bitrate=N/A speed=14.2x    frame=11450 fps=342 q=-0.0 size=N/A time=00:07:57.56 bitrate=N/A speed=14.2x    frame=11643 fps=342 q=-0.0 size=N/A time=00:08:05.61 bitrate=N/A speed=14.3x    frame=11827 fps=342 q=-0.0 size=N/A time=00:08:13.28 bitrate=N/A speed=14.3x    frame=12008 fps=342 q=-0.0 size=N/A time=00:08:20.83 bitrate=N/A speed=14.3x    frame=12197 fps=343 q=-0.0 size=N/A time=00:08:28.71 bitrate=N/A speed=14.3x    frame=12384 fps=343 q=-0.0 size=N/A time=00:08:36.51 bitrate=N/A speed=14.3x    frame=12574 fps=343 q=-0.0 size=N/A time=00:08:44.44 bitrate=N/A speed=14.3x    frame=12756 fps=344 q=-0.0 size=N/A time=00:08:52.03 bitrate=N/A speed=14.3x    frame=12943 fps=344 q=-0.0 size=N/A time=00:08:59.83 bitrate=N/A speed=14.3x    frame=13128 fps=344 q=-0.0 size=N/A time=00:09:07.54 bitrate=N/A speed=14.3x    frame=13302 fps=344 q=-0.0 size=N/A time=00:09:14.80 bitrate=N/A speed=14.3x    frame=13477 fps=344 q=-0.0 size=N/A time=00:09:22.10 bitrate=N/A speed=14.3x    frame=13662 fps=344 q=-0.0 size=N/A time=00:09:29.81 bitrate=N/A speed=14.4x    frame=13853 fps=344 q=-0.0 size=N/A time=00:09:37.78 bitrate=N/A speed=14.4x    frame=14032 fps=344 q=-0.0 size=N/A time=00:09:45.25 bitrate=N/A speed=14.4x    frame=14193 fps=344 q=-0.0 size=N/A time=00:09:51.96 bitrate=N/A speed=14.3x    frame=14373 fps=344 q=-0.0 size=N/A time=00:09:59.47 bitrate=N/A speed=14.4x    frame=14561 fps=344 q=-0.0 size=N/A time=00:10:07.31 bitrate=N/A speed=14.4x    frame=14746 fps=344 q=-0.0 size=N/A time=00:10:15.03 bitrate=N/A speed=14.4x    frame=14933 fps=345 q=-0.0 size=N/A time=00:10:22.83 bitrate=N/A speed=14.4x    frame=15106 fps=345 q=-0.0 size=N/A time=00:10:30.04 bitrate=N/A speed=14.4x    frame=15272 fps=344 q=-0.0 size=N/A time=00:10:36.96 bitrate=N/A speed=14.4x    frame=15460 fps=345 q=-0.0 size=N/A time=00:10:44.81 bitrate=N/A speed=14.4x    frame=15643 fps=345 q=-0.0 size=N/A time=00:10:52.44 bitrate=N/A speed=14.4x    frame=15828 fps=345 q=-0.0 size=N/A time=00:11:00.15 bitrate=N/A speed=14.4x    frame=16015 fps=345 q=-0.0 size=N/A time=00:11:07.95 bitrate=N/A speed=14.4x    frame=16200 fps=345 q=-0.0 size=N/A time=00:11:15.67 bitrate=N/A speed=14.4x    frame=16386 fps=345 q=-0.0 size=N/A time=00:11:23.43 bitrate=N/A speed=14.4x    frame=16563 fps=345 q=-0.0 size=N/A time=00:11:30.81 bitrate=N/A speed=14.4x    frame=16757 fps=346 q=-0.0 size=N/A time=00:11:38.90 bitrate=N/A speed=14.4x    frame=16940 fps=346 q=-0.0 size=N/A time=00:11:46.53 bitrate=N/A speed=14.4x    frame=17129 fps=346 q=-0.0 size=N/A time=00:11:54.42 bitrate=N/A speed=14.4x    frame=17318 fps=346 q=-0.0 size=N/A time=00:12:02.30 bitrate=N/A speed=14.4x    frame=17503 fps=346 q=-0.0 size=N/A time=00:12:10.02 bitrate=N/A speed=14.4x    frame=17677 fps=346 q=-0.0 size=N/A time=00:12:17.27 bitrate=N/A speed=14.4x    frame=17874 fps=347 q=-0.0 size=N/A time=00:12:25.49 bitrate=N/A speed=14.5x    frame=18057 fps=347 q=-0.0 size=N/A time=00:12:33.12 bitrate=N/A speed=14.5x    frame=18231 fps=347 q=-0.0 size=N/A time=00:12:40.38 bitrate=N/A speed=14.5x    frame=18402 fps=346 q=-0.0 size=N/A time=00:12:47.51 bitrate=N/A speed=14.5x    frame=18594 fps=347 q=-0.0 size=N/A time=00:12:55.52 bitrate=N/A speed=14.5x    frame=18783 fps=347 q=-0.0 size=N/A time=00:13:03.40 bitrate=N/A speed=14.5x    frame=18974 fps=347 q=-0.0 size=N/A time=00:13:11.37 bitrate=N/A speed=14.5x    frame=19165 fps=347 q=-0.0 size=N/A time=00:13:19.34 bitrate=N/A speed=14.5x    frame=19363 fps=348 q=-0.0 size=N/A time=00:13:27.59 bitrate=N/A speed=14.5x    frame=19549 fps=348 q=-0.0 size=N/A time=00:13:35.35 bitrate=N/A speed=14.5x    frame=19737 fps=348 q=-0.0 size=N/A time=00:13:43.19 bitrate=N/A speed=14.5x    frame=19923 fps=348 q=-0.0 size=N/A time=00:13:50.95 bitrate=N/A speed=14.5x    frame=20106 fps=348 q=-0.0 size=N/A time=00:13:58.58 bitrate=N/A speed=14.5x    frame=20308 fps=348 q=-0.0 size=N/A time=00:14:07.01 bitrate=N/A speed=14.5x    frame=20485 fps=348 q=-0.0 size=N/A time=00:14:14.39 bitrate=N/A speed=14.5x    frame=20645 fps=348 q=-0.0 size=N/A time=00:14:21.06 bitrate=N/A speed=14.5x    frame=20833 fps=348 q=-0.0 size=N/A time=00:14:28.90 bitrate=N/A speed=14.5x    frame=21019 fps=348 q=-0.0 size=N/A time=00:14:36.66 bitrate=N/A speed=14.5x    frame=21205 fps=348 q=-0.0 size=N/A time=00:14:44.42 bitrate=N/A speed=14.5x    frame=21380 fps=348 q=-0.0 size=N/A time=00:14:51.72 bitrate=N/A speed=14.5x    frame=21569 fps=349 q=-0.0 size=N/A time=00:14:59.60 bitrate=N/A speed=14.5x    frame=21764 fps=349 q=-0.0 size=N/A time=00:15:07.74 bitrate=N/A speed=14.5x    frame=21942 fps=349 q=-0.0 size=N/A time=00:15:15.16 bitrate=N/A speed=14.5x    frame=22138 fps=349 q=-0.0 size=N/A time=00:15:23.33 bitrate=N/A speed=14.6x    frame=22327 fps=349 q=-0.0 size=N/A time=00:15:31.22 bitrate=N/A speed=14.6x    frame=22512 fps=349 q=-0.0 size=N/A time=00:15:38.93 bitrate=N/A speed=14.6x    frame=22701 fps=349 q=-0.0 size=N/A time=00:15:46.82 bitrate=N/A speed=14.6x    frame=22888 fps=349 q=-0.0 size=N/A time=00:15:54.62 bitrate=N/A speed=14.6x    frame=23067 fps=349 q=-0.0 size=N/A time=00:16:02.08 bitrate=N/A speed=14.6x    frame=23257 fps=350 q=-0.0 size=N/A time=00:16:10.01 bitrate=N/A speed=14.6x    frame=23447 fps=350 q=-0.0 size=N/A time=00:16:17.93 bitrate=N/A speed=14.6x    frame=23637 fps=350 q=-0.0 size=N/A time=00:16:25.85 bitrate=N/A speed=14.6x    frame=23831 fps=350 q=-0.0 size=N/A time=00:16:33.95 bitrate=N/A speed=14.6x    frame=24019 fps=350 q=-0.0 size=N/A time=00:16:41.79 bitrate=N/A speed=14.6x    frame=24197 fps=350 q=-0.0 size=N/A time=00:16:49.21 bitrate=N/A speed=14.6x    frame=24384 fps=350 q=-0.0 size=N/A time=00:16:57.01 bitrate=N/A speed=14.6x    frame=24575 fps=350 q=-0.0 size=N/A time=00:17:04.98 bitrate=N/A speed=14.6x    frame=24764 fps=351 q=-0.0 size=N/A time=00:17:12.86 bitrate=N/A speed=14.6x    frame=24957 fps=351 q=-0.0 size=N/A time=00:17:20.91 bitrate=N/A speed=14.6x    frame=25142 fps=351 q=-0.0 size=N/A time=00:17:28.63 bitrate=N/A speed=14.6x    frame=25329 fps=351 q=-0.0 size=N/A time=00:17:36.43 bitrate=N/A speed=14.6x    frame=25522 fps=351 q=-0.0 size=N/A time=00:17:44.48 bitrate=N/A speed=14.6x    frame=25699 fps=351 q=-0.0 size=N/A time=00:17:51.86 bitrate=N/A speed=14.6x    frame=25888 fps=351 q=-0.0 size=N/A time=00:17:59.74 bitrate=N/A speed=14.6x    frame=26076 fps=351 q=-0.0 size=N/A time=00:18:07.58 bitrate=N/A speed=14.6x    frame=26269 fps=351 q=-0.0 size=N/A time=00:18:15.63 bitrate=N/A speed=14.7x    frame=26459 fps=351 q=-0.0 size=N/A time=00:18:23.56 bitrate=N/A speed=14.7x    frame=26652 fps=352 q=-0.0 size=N/A time=00:18:31.61 bitrate=N/A speed=14.7x    frame=26837 fps=352 q=-0.0 size=N/A time=00:18:39.32 bitrate=N/A speed=14.7x    frame=27010 fps=352 q=-0.0 size=N/A time=00:18:46.54 bitrate=N/A speed=14.7x    frame=27182 fps=351 q=-0.0 size=N/A time=00:18:53.71 bitrate=N/A speed=14.7x    frame=27362 fps=351 q=-0.0 size=N/A time=00:19:01.22 bitrate=N/A speed=14.7x    frame=27541 fps=351 q=-0.0 size=N/A time=00:19:08.68 bitrate=N/A speed=14.7x    frame=27719 fps=351 q=-0.0 size=N/A time=00:19:16.11 bitrate=N/A speed=14.7x    frame=27900 fps=351 q=-0.0 size=N/A time=00:19:23.66 bitrate=N/A speed=14.7x    frame=28079 fps=351 q=-0.0 size=N/A time=00:19:31.12 bitrate=N/A speed=14.7x    frame=28260 fps=351 q=-0.0 size=N/A time=00:19:38.67 bitrate=N/A speed=14.7x    frame=28443 fps=351 q=-0.0 size=N/A time=00:19:46.31 bitrate=N/A speed=14.7x    frame=28634 fps=351 q=-0.0 size=N/A time=00:19:54.27 bitrate=N/A speed=14.7x    frame=28806 fps=351 q=-0.0 size=N/A time=00:20:01.45 bitrate=N/A speed=14.7x    frame=28970 fps=351 q=-0.0 size=N/A time=00:20:08.29 bitrate=N/A speed=14.6x    frame=29135 fps=351 q=-0.0 size=N/A time=00:20:15.17 bitrate=N/A speed=14.6x    frame=29312 fps=351 q=-0.0 size=N/A time=00:20:22.55 bitrate=N/A speed=14.6x    frame=29481 fps=351 q=-0.0 size=N/A time=00:20:29.60 bitrate=N/A speed=14.6x    frame=29644 fps=351 q=-0.0 size=N/A time=00:20:36.40 bitrate=N/A speed=14.6x    frame=29806 fps=350 q=-0.0 size=N/A time=00:20:43.15 bitrate=N/A speed=14.6x    frame=29963 fps=350 q=-0.0 size=N/A time=00:20:49.70 bitrate=N/A speed=14.6x    frame=30126 fps=350 q=-0.0 size=N/A time=00:20:56.50 bitrate=N/A speed=14.6x    frame=30303 fps=350 q=-0.0 size=N/A time=00:21:03.88 bitrate=N/A speed=14.6x    frame=30489 fps=350 q=-0.0 size=N/A time=00:21:11.64 bitrate=N/A speed=14.6x    frame=30673 fps=350 q=-0.0 size=N/A time=00:21:19.31 bitrate=N/A speed=14.6x    frame=30870 fps=350 q=-0.0 size=N/A time=00:21:27.53 bitrate=N/A speed=14.6x    frame=31055 fps=350 q=-0.0 size=N/A time=00:21:35.25 bitrate=N/A speed=14.6x    frame=31238 fps=350 q=-0.0 size=N/A time=00:21:42.88 bitrate=N/A speed=14.6x    frame=31414 fps=350 q=-0.0 size=N/A time=00:21:50.22 bitrate=N/A speed=14.6x    frame=31603 fps=350 q=-0.0 size=N/A time=00:21:58.10 bitrate=N/A speed=14.6x    frame=31779 fps=350 q=-0.0 size=N/A time=00:22:05.44 bitrate=N/A speed=14.6x    frame=31941 fps=350 q=-0.0 size=N/A time=00:22:12.20 bitrate=N/A speed=14.6x    frame=32125 fps=350 q=-0.0 size=N/A time=00:22:19.88 bitrate=N/A speed=14.6x    frame=32311 fps=350 q=-0.0 size=N/A time=00:22:27.63 bitrate=N/A speed=14.6x    frame=32494 fps=350 q=-0.0 size=N/A time=00:22:35.27 bitrate=N/A speed=14.6x    frame=32650 fps=350 q=-0.0 size=N/A time=00:22:41.77 bitrate=N/A speed=14.6x    frame=32790 fps=349 q=-0.0 size=N/A time=00:22:47.61 bitrate=N/A speed=14.6x    frame=32959 fps=349 q=-0.0 size=N/A time=00:22:54.66 bitrate=N/A speed=14.6x    frame=33134 fps=349 q=-0.0 size=N/A time=00:23:01.96 bitrate=N/A speed=14.6x    frame=33307 fps=349 q=-0.0 size=N/A time=00:23:09.17 bitrate=N/A speed=14.6x    frame=33466 fps=349 q=-0.0 size=N/A time=00:23:15.81 bitrate=N/A speed=14.6x    frame=33608 fps=348 q=-0.0 size=N/A time=00:23:21.73 bitrate=N/A speed=14.5x    frame=33740 fps=348 q=-0.0 size=N/A time=00:23:27.23 bitrate=N/A speed=14.5x    frame=33856 fps=347 q=-0.0 size=N/A time=00:23:32.07 bitrate=N/A speed=14.5x    frame=34004 fps=347 q=-0.0 size=N/A time=00:23:38.25 bitrate=N/A speed=14.5x    frame=34148 fps=347 q=-0.0 size=N/A time=00:23:44.25 bitrate=N/A speed=14.5x    frame=34285 fps=346 q=-0.0 size=N/A time=00:23:49.97 bitrate=N/A speed=14.4x    frame=34405 fps=346 q=-0.0 size=N/A time=00:23:54.97 bitrate=N/A speed=14.4x    frame=34563 fps=345 q=-0.0 size=N/A time=00:24:01.56 bitrate=N/A speed=14.4x    [Parsed_psnr_16 @ 000002377b396a00] PSNR y:49.663984 u:51.016398 v:51.115402 average:50.082865 min:37.993196 max:inf
[out#0/null @ 000002376ea2dec0] video:14903KiB audio:271276KiB subtitle:0KiB other streams:0KiB global headers:0KiB muxing overhead: unknown
frame=34683 fps=345 q=-0.0 Lsize=N/A time=00:24:06.57 bitrate=N/A speed=14.4x    
